<?xml version="1.0" encoding="UTF-8"?>
<svg version="1.1" xmlns="http://www.w3.org/2000/svg" width="500" height="500">
<path d="M0 0 C165 0 330 0 500 0 C500 165 500 330 500 500 C335 500 170 500 0 500 C0 335 0 170 0 0 Z " fill="#B0DBEB" transform="translate(0,0)"/>
<path d="M0 0 C0.74217773 0.3187207 1.48435547 0.63744141 2.24902344 0.96582031 C20.39406327 8.88897005 35.53287068 19.48262115 50 33 C50.87527344 33.80953125 51.75054687 34.6190625 52.65234375 35.453125 C82.90007055 64.44233806 98.04520084 105.46181849 99.35400391 146.86547852 C99.58081153 169.9233742 95.8857694 196.30198977 84.359375 216.5703125 C82.88506679 219.09608886 82.88506679 219.09608886 81.61328125 222.328125 C68.61612316 253.28924211 40.1598267 277.91620641 11 293 C10.10627686 293.47638916 9.21255371 293.95277832 8.29174805 294.44360352 C1.14595435 298.16241046 -5.97762458 300.8824857 -13.6875 303.1875 C-15.25274414 303.6815332 -15.25274414 303.6815332 -16.84960938 304.18554688 C-31.65347883 308.69575059 -46.00707036 310.54384206 -61.4375 310.375 C-62.20136017 310.37034729 -62.96522034 310.36569458 -63.75222778 310.36090088 C-75.04672886 310.28040174 -86.03479217 309.91043933 -97 307 C-97.81452637 306.78537109 -98.62905273 306.57074219 -99.46826172 306.34960938 C-109.58728465 303.61300641 -119.49632834 300.45912773 -129 296 C-129.60763184 295.71930664 -130.21526367 295.43861328 -130.84130859 295.14941406 C-151.78026622 285.40436853 -171.42846669 271.03187564 -186 253 C-186.74636719 252.1028125 -187.49273437 251.205625 -188.26171875 250.28125 C-203.90410796 230.83262794 -214.35334977 208.2444837 -220 184 C-220.24556641 183.01604248 -220.24556641 183.01604248 -220.49609375 182.01220703 C-225.68396511 160.65511265 -225.15831499 134.29405699 -220 113 C-219.83902832 112.31341309 -219.67805664 111.62682617 -219.51220703 110.91943359 C-212.8687241 83.53500972 -198.78206545 56.28973628 -178 37 C-177.21625 36.21625 -176.4325 35.4325 -175.625 34.625 C-174.75875 33.75875 -173.8925 32.8925 -173 32 C-172.42378906 31.36578125 -171.84757812 30.7315625 -171.25390625 30.078125 C-154.10465095 11.79423088 -128.86777731 -0.29550834 -105 -7 C-104.20819336 -7.22993652 -103.41638672 -7.45987305 -102.60058594 -7.69677734 C-68.97394662 -17.10688463 -31.8907282 -13.71174483 0 0 Z " fill="#393A3A" transform="translate(312,101)"/>
<path d="M0 0 C2.31 0 4.62 0 7 0 C8.33333333 10.66666667 9.66666667 21.33333333 11 32 C11.99 21.44 12.98 10.88 14 0 C16.31 0 18.62 0 21 0 C23.16139078 2.16139078 22.75359153 6.69211944 23.0625 9.6875 C23.15192871 10.53932861 23.24135742 11.39115723 23.33349609 12.26879883 C24.04851939 19.53820234 24.21451098 26.69470929 24 34 C24.66 34 25.32 34 26 34 C25.94779297 33.08347656 25.94779297 33.08347656 25.89453125 32.1484375 C25.57368549 21.30079521 27.38919148 10.69873887 29 0 C30.98 0 32.96 0 35 0 C34.57031106 10.50515372 33.65499689 20.92439899 32.5 31.375 C32.36940186 32.56971924 32.23880371 33.76443848 32.10424805 34.99536133 C31.97703369 36.11837646 31.84981934 37.2413916 31.71875 38.3984375 C31.60466797 39.40567871 31.49058594 40.41291992 31.37304688 41.45068359 C31 44 31 44 30 47 C26.7 47 23.4 47 20 47 C19.34 40.73 18.68 34.46 18 28 C17.01 34.27 16.02 40.54 15 47 C11.7 47 8.4 47 5 47 C3.48035571 38.44395395 2.32284951 29.8870369 1.375 21.25 C1.2409375 20.08339844 1.106875 18.91679687 0.96875 17.71484375 C0.30897416 11.77012875 -0.16204512 5.9809382 0 0 Z " fill="#36AFF5" transform="translate(166,219)"/>
<path d="M0 0 C2.64 0 5.28 0 8 0 C8.67250524 2.58193977 9.33817901 5.16532071 10 7.75 C10.19078125 8.47960937 10.3815625 9.20921875 10.578125 9.9609375 C11.46515964 13.44571646 12 16.38123722 12 20 C12.66 20 13.32 20 14 20 C14.1546875 18.1128125 14.1546875 18.1128125 14.3125 16.1875 C14.91815822 10.59406824 16.42943108 5.39456282 18 0 C23.28 0 28.56 0 34 0 C36.475 8.91 36.475 8.91 39 18 C40.85671215 14.28657571 41.70211372 11.3351437 42.5625 7.3125 C43.89518414 1.10481586 43.89518414 1.10481586 45 0 C47.33297433 -0.04092937 49.66705225 -0.04241723 52 0 C50.66663934 6.20787916 49.15270441 12.32485756 47.4375 18.4375 C47.21642578 19.23865234 46.99535156 20.03980469 46.76757812 20.86523438 C45.12858631 26.74282738 45.12858631 26.74282738 44 29 C43.84995027 30.3734635 43.75161994 31.7528526 43.68359375 33.1328125 C43.62075195 34.34130859 43.62075195 34.34130859 43.55664062 35.57421875 C43.51732422 36.41597656 43.47800781 37.25773437 43.4375 38.125 C43.37272461 39.39923828 43.37272461 39.39923828 43.30664062 40.69921875 C43.20045764 42.79928223 43.09971503 44.89961948 43 47 C40.36 47 37.72 47 35 47 C34.98582031 45.90945313 34.97164063 44.81890625 34.95703125 43.6953125 C34.66827173 32.89763945 32.82063397 23.4274583 29.61767578 13.14013672 C28.55834115 9.46973063 27.77680743 5.73882928 27 2 C26.34 2 25.68 2 25 2 C24.690625 3.918125 24.690625 3.918125 24.375 5.875 C23.54107415 10.19071847 22.26058994 14.16711144 20.76269531 18.28222656 C17.26039404 27.96018335 16.02599655 36.73136134 16 47 C13.69 47 11.38 47 9 47 C8.98582031 45.87464844 8.97164063 44.74929688 8.95703125 43.58984375 C8.71168786 34.18432675 7.57921169 26.48955309 4.27734375 17.63671875 C2.25588177 11.88142484 1.13517355 5.98965557 0 0 Z " fill="#39B0F5" transform="translate(283,219)"/>
<path d="M0 0 C15 0 15 0 21 4 C22.53521713 7.07043426 22.20460647 10.30428604 22.23828125 13.67578125 C22.25038887 14.81904121 22.25038887 14.81904121 22.26274109 15.98539734 C22.27657975 17.60018643 22.28730289 19.21500474 22.29516602 20.82983398 C22.31236192 23.29272333 22.35624507 25.75426406 22.40039062 28.21679688 C22.41051935 29.78644847 22.41903489 31.35611147 22.42578125 32.92578125 C22.44328934 33.65928299 22.46079742 34.39278473 22.47883606 35.14851379 C22.46335918 38.81935751 22.1104628 40.82909395 20.09838867 43.94213867 C13.95105925 49.97074132 11.73466104 47 0 47 C0 31.49 0 15.98 0 0 Z " fill="#38B3FB" transform="translate(258,219)"/>
<path d="M0 0 C4.247651 1.79345265 5.99043341 3.90629445 8 8 C8.38818359 11.31811523 8.38818359 11.31811523 8.3984375 15.05859375 C8.40130768 15.72536636 8.40417786 16.39213898 8.40713501 17.07911682 C8.40916816 18.48349867 8.40369079 19.88790933 8.39111328 21.29223633 C8.37507212 23.42789886 8.39097197 25.56166206 8.41015625 27.69726562 C8.40817319 29.06771247 8.4043282 30.43815813 8.3984375 31.80859375 C8.39505371 33.04407959 8.39166992 34.27956543 8.38818359 35.55249023 C7.95976691 39.35731542 7.01393298 41.75907614 5 45 C0.55223754 47.96517497 -3.78521883 47.76239491 -9 47 C-12.41311667 44.47429367 -13.66637768 43.00086696 -15 39 C-15.22800089 34.60372836 -15.22827937 30.20514601 -15.24023438 25.80371094 C-15.24993464 23.63958215 -15.28096767 21.47640581 -15.3125 19.3125 C-15.31903127 17.92969312 -15.32428126 16.54687947 -15.328125 15.1640625 C-15.34214355 13.28388428 -15.34214355 13.28388428 -15.35644531 11.36572266 C-14.88673155 6.93046654 -13.30640835 4.40317934 -10.3125 1.1875 C-6.91516182 -0.55707906 -3.69693338 -0.53760187 0 0 Z " fill="#37ADF1" transform="translate(219,219)"/>
<path d="M0 0 C15 0 15 0 21 4 C22.47793555 6.95587111 22.17053651 9.64997645 22.1875 12.9375 C22.20167969 14.18402344 22.21585938 15.43054688 22.23046875 16.71484375 C22 20 22 20 20 23 C19.34 23 18.68 23 18 23 C18.64453125 23.97066406 19.2890625 24.94132812 19.953125 25.94140625 C22.40639213 30.23462372 22.65826161 34.07119541 22.75 38.9375 C22.79447266 40.10635742 22.79447266 40.10635742 22.83984375 41.29882812 C22.90977701 43.19868177 22.95724051 45.0993406 23 47 C20.36 47 17.72 47 15 47 C14.67 41.39 14.34 35.78 14 30 C11.69 29.34 9.38 28.68 7 28 C7 34.27 7 40.54 7 47 C4.69 47 2.38 47 0 47 C0 31.49 0 15.98 0 0 Z " fill="#37B2F9" transform="translate(231,219)"/>
<path d="M0 0 C6 0 6 0 8 1 C8.02465504 5.39656173 8.04283842 9.7930872 8.05493164 14.18969727 C8.05997121 15.68644918 8.06680287 17.18319616 8.07543945 18.67993164 C8.08752159 20.82699807 8.09323191 22.97399962 8.09765625 25.12109375 C8.10289307 26.4145874 8.10812988 27.70808105 8.11352539 29.04077148 C8 32 8 32 7 33 C4.69 33 2.38 33 0 33 C0 22.11 0 11.22 0 0 Z " fill="#3F4447" transform="translate(265,226)"/>
<path d="M0 0 C2.5 0.125 2.5 0.125 3.5 1.125 C3.71832989 5.52498945 3.68579146 9.93034812 3.68530273 14.33520508 C3.68748751 16.54983782 3.70563531 18.76397123 3.72460938 20.97851562 C3.72754356 22.38020662 3.72952819 23.7819 3.73046875 25.18359375 C3.73457764 26.46548584 3.73868652 27.74737793 3.74291992 29.06811523 C3.5 32.125 3.5 32.125 1.5 34.125 C-1.125 33.75 -1.125 33.75 -3.5 33.125 C-3.52465392 28.58602295 -3.54283789 24.04708457 -3.55493164 19.50805664 C-3.5599714 17.96280234 -3.5668032 16.41755284 -3.57543945 14.87231445 C-3.58752076 12.65574971 -3.59323173 10.43924782 -3.59765625 8.22265625 C-3.60281754 7.5278566 -3.60797882 6.83305695 -3.61329651 6.11720276 C-3.61349277 4.4527067 -3.56189129 2.78834501 -3.5 1.125 C-2.5 0.125 -2.5 0.125 0 0 Z " fill="#2D2E2F" transform="translate(215.5,225.875)"/>
<path d="M0 0 C1.98 0 3.96 0 6 0 C8 2 8 2 8.265625 4.3125 C8.26046875 5.199375 8.2553125 6.08625 8.25 7 C8.25515625 7.886875 8.2603125 8.77375 8.265625 9.6875 C8 12 8 12 6 14 C4.02 14 2.04 14 0 14 C0 9.38 0 4.76 0 0 Z " fill="#36434A" transform="translate(238,226)"/>
</svg>
